<svg width="1440" height="1024" viewBox="0 0 1440 1024" fill="none" xmlns="http://www.w3.org/2000/svg">
<g id="Confirmation - Transfer">
<rect width="1440" height="1024" fill="#155A9B" fill-opacity="0.5"/>
<g id="Group 4770">
<g id="Rectangle 3291" filter="url(#filter0_d)">
<rect x="326" y="168" width="788" height="689" rx="37" fill="white"/>
</g>
<g id="Group 1911" opacity="0.8">
<path id="Ellipse 47" opacity="0.8" d="M1093 202.5C1093 191.73 1084.27 183 1073.5 183C1062.73 183 1054 191.73 1054 202.5C1054 213.27 1062.73 222 1073.5 222C1084.27 222 1093 213.27 1093 202.5Z" fill="#2B74BA"/>
<path id="Path 4772" opacity="0.8" d="M1073.49 200.27L1069.03 195.81C1068.74 195.525 1068.34 195.369 1067.93 195.373C1067.51 195.378 1067.12 195.544 1066.83 195.835C1066.54 196.127 1066.37 196.52 1066.37 196.932C1066.36 197.344 1066.52 197.742 1066.8 198.04L1071.26 202.5L1066.8 206.96C1066.52 207.258 1066.36 207.656 1066.37 208.068C1066.37 208.479 1066.54 208.873 1066.83 209.165C1067.12 209.456 1067.51 209.622 1067.93 209.626C1068.34 209.631 1068.74 209.475 1069.03 209.19L1073.49 204.73L1077.95 209.19C1078.25 209.475 1078.65 209.631 1079.06 209.626C1079.47 209.622 1079.87 209.456 1080.16 209.165C1080.45 208.873 1080.62 208.479 1080.62 208.068C1080.63 207.656 1080.47 207.258 1080.18 206.96L1075.72 202.5L1080.18 198.04C1080.47 197.742 1080.63 197.344 1080.62 196.932C1080.62 196.52 1080.45 196.127 1080.16 195.835C1079.87 195.544 1079.47 195.378 1079.06 195.373C1078.65 195.369 1078.25 195.525 1077.95 195.81L1073.49 200.27Z" fill="white"/>
</g>
<g id="buy">
<g id="Group" filter="url(#filter1_d)">
<path id="Rectangle 196" d="M872.225 716H568.775C553.988 716 542 727.988 542 742.775C542 757.562 553.988 769.55 568.775 769.55H872.225C887.012 769.55 899 757.562 899 742.775C899 727.988 887.012 716 872.225 716Z" fill="#2B74BA"/>
</g>
<path id="Confirm Transaction" d="M642.109 744.488C641.934 745.992 641.377 747.154 640.439 747.975C639.508 748.788 638.268 749.195 636.719 749.195C635.039 749.195 633.691 748.593 632.676 747.389C631.667 746.184 631.162 744.573 631.162 742.555V741.188C631.162 739.866 631.396 738.704 631.865 737.701C632.34 736.699 633.011 735.93 633.877 735.396C634.743 734.856 635.745 734.586 636.885 734.586C638.395 734.586 639.606 735.009 640.518 735.855C641.429 736.695 641.96 737.861 642.109 739.352H640.225C640.062 738.219 639.707 737.398 639.16 736.891C638.62 736.383 637.861 736.129 636.885 736.129C635.687 736.129 634.746 736.572 634.062 737.457C633.385 738.342 633.047 739.602 633.047 741.236V742.613C633.047 744.156 633.369 745.383 634.014 746.295C634.658 747.206 635.56 747.662 636.719 747.662C637.76 747.662 638.558 747.428 639.111 746.959C639.671 746.484 640.042 745.66 640.225 744.488H642.109ZM643.916 743.619C643.916 742.584 644.118 741.653 644.521 740.826C644.932 739.999 645.498 739.361 646.221 738.912C646.95 738.463 647.78 738.238 648.711 738.238C650.15 738.238 651.312 738.736 652.197 739.732C653.089 740.729 653.535 742.053 653.535 743.707V743.834C653.535 744.863 653.337 745.787 652.939 746.607C652.549 747.421 651.986 748.056 651.25 748.512C650.521 748.967 649.681 749.195 648.73 749.195C647.298 749.195 646.136 748.697 645.244 747.701C644.359 746.705 643.916 745.387 643.916 743.746V743.619ZM645.732 743.834C645.732 745.006 646.003 745.947 646.543 746.656C647.09 747.366 647.819 747.721 648.73 747.721C649.648 747.721 650.378 747.363 650.918 746.646C651.458 745.924 651.729 744.915 651.729 743.619C651.729 742.46 651.452 741.523 650.898 740.807C650.352 740.084 649.622 739.723 648.711 739.723C647.819 739.723 647.1 740.077 646.553 740.787C646.006 741.497 645.732 742.512 645.732 743.834ZM657.51 738.434L657.568 739.762C658.376 738.746 659.43 738.238 660.732 738.238C662.965 738.238 664.092 739.498 664.111 742.018V749H662.305V742.008C662.298 741.246 662.122 740.683 661.777 740.318C661.439 739.954 660.908 739.771 660.186 739.771C659.6 739.771 659.085 739.928 658.643 740.24C658.2 740.553 657.855 740.963 657.607 741.471V749H655.801V738.434H657.51ZM667.441 749V739.83H665.771V738.434H667.441V737.535C667.441 736.357 667.777 735.439 668.447 734.781C669.124 734.124 670.078 733.795 671.309 733.795C672.038 733.795 672.959 733.993 674.072 734.391L673.77 735.914C672.956 735.589 672.181 735.426 671.445 735.426C670.671 735.426 670.111 735.602 669.766 735.953C669.427 736.298 669.258 736.819 669.258 737.516V738.434H671.416V739.83H669.258V749H667.441ZM674.971 749H673.154V738.434H674.971V749ZM683.018 740.055C682.744 740.009 682.448 739.986 682.129 739.986C680.944 739.986 680.14 740.491 679.717 741.5V749H677.91V738.434H679.668L679.697 739.654C680.29 738.71 681.13 738.238 682.217 738.238C682.568 738.238 682.835 738.284 683.018 738.375V740.055ZM686.387 738.434L686.436 739.605C687.21 738.694 688.255 738.238 689.57 738.238C691.048 738.238 692.054 738.805 692.588 739.938C692.939 739.43 693.395 739.02 693.955 738.707C694.521 738.395 695.189 738.238 695.957 738.238C698.275 738.238 699.453 739.465 699.492 741.92V749H697.686V742.027C697.686 741.272 697.513 740.709 697.168 740.338C696.823 739.96 696.243 739.771 695.43 739.771C694.759 739.771 694.202 739.973 693.76 740.377C693.317 740.774 693.06 741.311 692.988 741.988V749H691.172V742.076C691.172 740.54 690.42 739.771 688.916 739.771C687.731 739.771 686.921 740.276 686.484 741.285V749H684.678V738.434H686.387ZM716.904 736.324H712.334V749H710.469V736.324H705.908V734.781H716.904V736.324ZM723.096 740.055C722.822 740.009 722.526 739.986 722.207 739.986C721.022 739.986 720.218 740.491 719.795 741.5V749H717.988V738.434H719.746L719.775 739.654C720.368 738.71 721.208 738.238 722.295 738.238C722.646 738.238 722.913 738.284 723.096 738.375V740.055ZM730.898 749C730.794 748.792 730.71 748.421 730.645 747.887C729.805 748.759 728.802 749.195 727.637 749.195C726.595 749.195 725.739 748.902 725.068 748.316C724.404 747.724 724.072 746.975 724.072 746.07C724.072 744.97 724.489 744.117 725.322 743.512C726.162 742.9 727.34 742.594 728.857 742.594H730.615V741.764C730.615 741.132 730.426 740.631 730.049 740.26C729.671 739.882 729.115 739.693 728.379 739.693C727.734 739.693 727.194 739.856 726.758 740.182C726.322 740.507 726.104 740.901 726.104 741.363H724.287C724.287 740.836 724.473 740.328 724.844 739.84C725.221 739.345 725.729 738.954 726.367 738.668C727.012 738.382 727.718 738.238 728.486 738.238C729.704 738.238 730.658 738.544 731.348 739.156C732.038 739.762 732.396 740.598 732.422 741.666V746.529C732.422 747.499 732.546 748.271 732.793 748.844V749H730.898ZM727.9 747.623C728.467 747.623 729.004 747.477 729.512 747.184C730.02 746.891 730.387 746.51 730.615 746.041V743.873H729.199C726.986 743.873 725.879 744.521 725.879 745.816C725.879 746.383 726.068 746.826 726.445 747.145C726.823 747.464 727.308 747.623 727.9 747.623ZM736.963 738.434L737.021 739.762C737.829 738.746 738.883 738.238 740.186 738.238C742.419 738.238 743.545 739.498 743.564 742.018V749H741.758V742.008C741.751 741.246 741.576 740.683 741.23 740.318C740.892 739.954 740.361 739.771 739.639 739.771C739.053 739.771 738.538 739.928 738.096 740.24C737.653 740.553 737.308 740.963 737.061 741.471V749H735.254V738.434H736.963ZM752.441 746.197C752.441 745.709 752.256 745.331 751.885 745.064C751.52 744.791 750.879 744.557 749.961 744.361C749.049 744.166 748.324 743.932 747.783 743.658C747.249 743.385 746.852 743.059 746.592 742.682C746.338 742.304 746.211 741.855 746.211 741.334C746.211 740.468 746.576 739.736 747.305 739.137C748.04 738.538 748.978 738.238 750.117 738.238C751.315 738.238 752.285 738.548 753.027 739.166C753.776 739.785 754.15 740.576 754.15 741.539H752.334C752.334 741.044 752.122 740.618 751.699 740.26C751.283 739.902 750.755 739.723 750.117 739.723C749.46 739.723 748.945 739.866 748.574 740.152C748.203 740.439 748.018 740.813 748.018 741.275C748.018 741.712 748.19 742.04 748.535 742.262C748.88 742.483 749.502 742.695 750.4 742.896C751.305 743.098 752.038 743.339 752.598 743.619C753.158 743.899 753.571 744.238 753.838 744.635C754.111 745.025 754.248 745.504 754.248 746.07C754.248 747.014 753.87 747.773 753.115 748.346C752.36 748.912 751.38 749.195 750.176 749.195C749.329 749.195 748.581 749.046 747.93 748.746C747.279 748.447 746.768 748.03 746.396 747.496C746.032 746.956 745.85 746.373 745.85 745.748H747.656C747.689 746.354 747.93 746.835 748.379 747.193C748.835 747.545 749.434 747.721 750.176 747.721C750.859 747.721 751.406 747.584 751.816 747.311C752.233 747.031 752.441 746.66 752.441 746.197ZM763.125 749C763.021 748.792 762.936 748.421 762.871 747.887C762.031 748.759 761.029 749.195 759.863 749.195C758.822 749.195 757.965 748.902 757.295 748.316C756.631 747.724 756.299 746.975 756.299 746.07C756.299 744.97 756.715 744.117 757.549 743.512C758.389 742.9 759.567 742.594 761.084 742.594H762.842V741.764C762.842 741.132 762.653 740.631 762.275 740.26C761.898 739.882 761.341 739.693 760.605 739.693C759.961 739.693 759.421 739.856 758.984 740.182C758.548 740.507 758.33 740.901 758.33 741.363H756.514C756.514 740.836 756.699 740.328 757.07 739.84C757.448 739.345 757.956 738.954 758.594 738.668C759.238 738.382 759.945 738.238 760.713 738.238C761.93 738.238 762.884 738.544 763.574 739.156C764.264 739.762 764.622 740.598 764.648 741.666V746.529C764.648 747.499 764.772 748.271 765.02 748.844V749H763.125ZM760.127 747.623C760.693 747.623 761.23 747.477 761.738 747.184C762.246 746.891 762.614 746.51 762.842 746.041V743.873H761.426C759.212 743.873 758.105 744.521 758.105 745.816C758.105 746.383 758.294 746.826 758.672 747.145C759.049 747.464 759.535 747.623 760.127 747.623ZM771.719 747.721C772.363 747.721 772.926 747.525 773.408 747.135C773.89 746.744 774.157 746.256 774.209 745.67H775.918C775.885 746.275 775.677 746.852 775.293 747.398C774.909 747.945 774.395 748.382 773.75 748.707C773.112 749.033 772.435 749.195 771.719 749.195C770.28 749.195 769.134 748.717 768.281 747.76C767.435 746.796 767.012 745.481 767.012 743.814V743.512C767.012 742.483 767.201 741.568 767.578 740.768C767.956 739.967 768.496 739.345 769.199 738.902C769.909 738.46 770.745 738.238 771.709 738.238C772.894 738.238 773.877 738.593 774.658 739.303C775.446 740.012 775.866 740.934 775.918 742.066H774.209C774.157 741.383 773.896 740.823 773.428 740.387C772.965 739.944 772.393 739.723 771.709 739.723C770.791 739.723 770.078 740.055 769.57 740.719C769.069 741.376 768.818 742.33 768.818 743.58V743.922C768.818 745.139 769.069 746.077 769.57 746.734C770.072 747.392 770.788 747.721 771.719 747.721ZM780.4 735.875V738.434H782.373V739.83H780.4V746.383C780.4 746.806 780.488 747.125 780.664 747.34C780.84 747.548 781.139 747.652 781.562 747.652C781.771 747.652 782.057 747.613 782.422 747.535V749C781.947 749.13 781.484 749.195 781.035 749.195C780.228 749.195 779.619 748.951 779.209 748.463C778.799 747.975 778.594 747.281 778.594 746.383V739.83H776.67V738.434H778.594V735.875H780.4ZM786.455 749H784.648V738.434H786.455V749ZM784.502 735.631C784.502 735.338 784.59 735.09 784.766 734.889C784.948 734.687 785.215 734.586 785.566 734.586C785.918 734.586 786.185 734.687 786.367 734.889C786.549 735.09 786.641 735.338 786.641 735.631C786.641 735.924 786.549 736.168 786.367 736.363C786.185 736.559 785.918 736.656 785.566 736.656C785.215 736.656 784.948 736.559 784.766 736.363C784.59 736.168 784.502 735.924 784.502 735.631ZM788.877 743.619C788.877 742.584 789.079 741.653 789.482 740.826C789.893 739.999 790.459 739.361 791.182 738.912C791.911 738.463 792.741 738.238 793.672 738.238C795.111 738.238 796.273 738.736 797.158 739.732C798.05 740.729 798.496 742.053 798.496 743.707V743.834C798.496 744.863 798.298 745.787 797.9 746.607C797.51 747.421 796.947 748.056 796.211 748.512C795.482 748.967 794.642 749.195 793.691 749.195C792.259 749.195 791.097 748.697 790.205 747.701C789.32 746.705 788.877 745.387 788.877 743.746V743.619ZM790.693 743.834C790.693 745.006 790.964 745.947 791.504 746.656C792.051 747.366 792.78 747.721 793.691 747.721C794.609 747.721 795.339 747.363 795.879 746.646C796.419 745.924 796.689 744.915 796.689 743.619C796.689 742.46 796.413 741.523 795.859 740.807C795.312 740.084 794.583 739.723 793.672 739.723C792.78 739.723 792.061 740.077 791.514 740.787C790.967 741.497 790.693 742.512 790.693 743.834ZM802.471 738.434L802.529 739.762C803.337 738.746 804.391 738.238 805.693 738.238C807.926 738.238 809.053 739.498 809.072 742.018V749H807.266V742.008C807.259 741.246 807.083 740.683 806.738 740.318C806.4 739.954 805.869 739.771 805.146 739.771C804.561 739.771 804.046 739.928 803.604 740.24C803.161 740.553 802.816 740.963 802.568 741.471V749H800.762V738.434H802.471Z" fill="white"/>
</g>
<path id="Cancel" d="M701.295 804.371C701.152 805.888 700.592 807.073 699.615 807.926C698.639 808.772 697.34 809.195 695.719 809.195C694.586 809.195 693.587 808.928 692.721 808.395C691.861 807.854 691.197 807.089 690.729 806.1C690.26 805.11 690.016 803.961 689.996 802.652V801.324C689.996 799.983 690.234 798.801 690.709 797.779C691.184 796.757 691.865 795.969 692.75 795.416C693.642 794.863 694.671 794.586 695.836 794.586C697.405 794.586 698.668 795.012 699.625 795.865C700.582 796.718 701.139 797.923 701.295 799.479H698.834C698.717 798.456 698.417 797.721 697.936 797.271C697.46 796.816 696.76 796.588 695.836 796.588C694.762 796.588 693.935 796.982 693.355 797.77C692.783 798.551 692.49 799.7 692.477 801.217V802.477C692.477 804.013 692.75 805.185 693.297 805.992C693.85 806.799 694.658 807.203 695.719 807.203C696.689 807.203 697.418 806.985 697.906 806.549C698.395 806.113 698.704 805.387 698.834 804.371H701.295ZM709.596 809C709.492 808.798 709.4 808.469 709.322 808.014C708.567 808.801 707.643 809.195 706.549 809.195C705.488 809.195 704.622 808.893 703.951 808.287C703.281 807.682 702.945 806.933 702.945 806.041C702.945 804.915 703.362 804.052 704.195 803.453C705.035 802.848 706.233 802.545 707.789 802.545H709.244V801.852C709.244 801.305 709.091 800.868 708.785 800.543C708.479 800.211 708.014 800.045 707.389 800.045C706.848 800.045 706.406 800.182 706.061 800.455C705.715 800.722 705.543 801.064 705.543 801.48H703.17C703.17 800.901 703.362 800.361 703.746 799.859C704.13 799.352 704.651 798.954 705.309 798.668C705.973 798.382 706.712 798.238 707.525 798.238C708.762 798.238 709.749 798.551 710.484 799.176C711.22 799.794 711.598 800.667 711.617 801.793V806.559C711.617 807.509 711.751 808.268 712.018 808.834V809H709.596ZM706.988 807.291C707.457 807.291 707.896 807.177 708.307 806.949C708.723 806.721 709.036 806.415 709.244 806.031V804.039H707.965C707.086 804.039 706.425 804.192 705.982 804.498C705.54 804.804 705.318 805.237 705.318 805.797C705.318 806.253 705.468 806.617 705.768 806.891C706.074 807.158 706.48 807.291 706.988 807.291ZM716.305 798.434L716.373 799.654C717.154 798.71 718.18 798.238 719.449 798.238C721.65 798.238 722.77 799.498 722.809 802.018V809H720.436V802.154C720.436 801.484 720.289 800.989 719.996 800.67C719.71 800.344 719.238 800.182 718.58 800.182C717.623 800.182 716.91 800.615 716.441 801.48V809H714.068V798.434H716.305ZM729.576 807.301C730.169 807.301 730.66 807.128 731.051 806.783C731.441 806.438 731.65 806.012 731.676 805.504H733.912C733.886 806.161 733.681 806.777 733.297 807.35C732.913 807.916 732.392 808.365 731.734 808.697C731.077 809.029 730.367 809.195 729.605 809.195C728.128 809.195 726.956 808.717 726.09 807.76C725.224 806.803 724.791 805.481 724.791 803.795V803.551C724.791 801.943 725.221 800.657 726.08 799.693C726.939 798.723 728.111 798.238 729.596 798.238C730.852 798.238 731.874 798.606 732.662 799.342C733.456 800.071 733.873 801.031 733.912 802.223H731.676C731.65 801.617 731.441 801.119 731.051 800.729C730.667 800.338 730.175 800.143 729.576 800.143C728.808 800.143 728.215 800.423 727.799 800.982C727.382 801.536 727.171 802.379 727.164 803.512V803.893C727.164 805.038 727.369 805.895 727.779 806.461C728.196 807.021 728.795 807.301 729.576 807.301ZM740.357 809.195C738.854 809.195 737.633 808.723 736.695 807.779C735.764 806.829 735.299 805.566 735.299 803.99V803.697C735.299 802.643 735.501 801.702 735.904 800.875C736.314 800.042 736.887 799.394 737.623 798.932C738.359 798.469 739.179 798.238 740.084 798.238C741.523 798.238 742.633 798.697 743.414 799.615C744.202 800.533 744.596 801.832 744.596 803.512V804.469H737.691C737.763 805.341 738.053 806.031 738.561 806.539C739.075 807.047 739.719 807.301 740.494 807.301C741.581 807.301 742.467 806.861 743.15 805.982L744.43 807.203C744.007 807.835 743.44 808.326 742.73 808.678C742.027 809.023 741.236 809.195 740.357 809.195ZM740.074 800.143C739.423 800.143 738.896 800.37 738.492 800.826C738.095 801.282 737.841 801.917 737.73 802.73H742.252V802.555C742.2 801.76 741.988 801.161 741.617 800.758C741.246 800.348 740.732 800.143 740.074 800.143ZM748.971 809H746.598V794H748.971V809Z" fill="#2B74BA"/>
<g id="Group 4769">
<g id="Group 85">
<path id="Ellipse 3" opacity="0.1" d="M734.889 601.668C821.353 616.942 903.828 559.231 919.102 472.767C934.376 386.302 876.665 303.827 790.2 288.553C703.736 273.279 621.261 330.99 605.987 417.455C590.713 503.919 648.424 586.394 734.889 601.668Z" fill="#1DA1F2"/>
<path id="Ellipse 4" opacity="0.1" d="M589.807 572.723C642.406 582.014 692.579 546.906 701.87 494.307C711.162 441.708 676.054 391.536 623.455 382.244C570.856 372.952 520.683 408.06 511.392 460.659C502.1 513.258 537.208 563.431 589.807 572.723Z" fill="#1DA1F2"/>
</g>
<g id="cash in pop up">
<path id="Path 6958" d="M770.683 617.775C789.083 617.518 808.495 616.856 823.802 611.408C826.428 610.477 829.177 608.977 828.284 607.357C812.039 603.732 793.707 604.461 776.145 605.129C737.429 606.601 698.654 607.486 659.821 607.782C640.814 607.925 621.805 607.925 602.793 607.782C592.598 607.708 577.325 606.789 569.054 610.665C580.316 613.948 600.801 613.48 613.766 614.25C631.255 615.283 648.779 616.102 666.338 616.708C701.07 617.894 735.852 618.249 770.683 617.775Z" fill="#F2F2F2"/>
<g id="Group 2202">
<path id="Path 6959" d="M742.332 375.127C743.668 375.505 744.998 375.877 746.336 376.255C746.748 376.37 747.95 376.458 747.863 377.119C747.822 377.444 747.775 378.561 747.661 379.665C747.877 380.583 748.059 381.509 748.355 382.404C749.105 384.673 753.095 388.67 751.05 390.898C750.684 391.351 750.235 391.73 749.726 392.012C749.291 392.193 748.826 392.291 748.355 392.301C747.991 392.328 747.417 392.462 747.133 392.206C746.827 391.681 746.6 391.115 746.459 390.525C746.006 389.398 745.554 388.272 745.102 387.149C744.657 386.042 744.043 384.779 742.969 384.554C742.73 384.529 742.493 384.486 742.26 384.426C742.001 384.308 741.769 384.137 741.578 383.926C740.808 383.184 740.123 382.36 739.533 381.468C738.999 380.644 739.303 379.976 739.445 379.091C739.606 378.058 739.156 377.127 739.3 376.1C739.32 375.822 739.413 375.554 739.569 375.323C739.725 375.092 739.94 374.906 740.191 374.784C740.623 374.681 741.076 374.714 741.489 374.879C741.772 374.972 742.055 375.052 742.332 375.127Z" fill="#E5D1BE"/>
<path id="Path 6960" d="M759.479 415.403C757.197 413.951 755.242 412.04 753.739 409.791C749.397 403.634 745.946 396.894 743.489 389.771C746.002 387.754 748.927 386.311 752.057 385.545C755.215 390.814 758.758 395.842 762.657 400.589C764.554 402.905 766.581 404.634 769.484 404.492C775.932 404.19 782.345 403.355 788.655 401.994C790.032 401.602 791.469 401.462 792.896 401.582C794.266 401.893 795.533 402.549 796.576 403.489C797.62 404.429 798.406 405.62 798.858 406.95C799.807 409.665 799.819 412.621 798.891 415.343C798.385 417.234 797.251 418.896 795.676 420.057C793.954 420.971 792.01 421.383 790.065 421.245C781.257 421.31 772.492 420.021 764.076 417.423C762.462 416.953 760.917 416.274 759.479 415.403Z" fill="#7BA3A8"/>
</g>
<g id="Group 2209">
<g id="Group 2205">
<path id="Path 6961" d="M596.844 610.832H583.13C581.704 610.832 580.336 610.266 579.328 609.258C578.319 608.25 577.751 606.883 577.749 605.457L565.96 565.499C565.96 564.793 566.099 564.093 566.37 563.441C566.641 562.789 567.037 562.196 567.537 561.697C568.036 561.198 568.63 560.802 569.282 560.532C569.935 560.262 570.635 560.123 571.341 560.124L601.38 569.179C602.806 569.179 604.174 569.745 605.183 570.753C606.192 571.761 606.76 573.128 606.761 574.554L602.231 605.459C602.227 606.885 601.658 608.252 600.649 609.259C599.639 610.267 598.271 610.832 596.844 610.832V610.832Z" fill="#E1B39C"/>
<path id="Path 6962" d="M691.483 610.832H705.196C706.622 610.832 707.99 610.266 708.999 609.258C710.008 608.25 710.576 606.883 710.577 605.457L722.367 565.499C722.367 564.793 722.227 564.093 721.957 563.441C721.686 562.789 721.29 562.196 720.79 561.697C720.29 561.198 719.697 560.802 719.044 560.532C718.392 560.262 717.692 560.123 716.986 560.124L686.946 569.179C685.52 569.179 684.152 569.745 683.143 570.753C682.135 571.761 681.567 573.128 681.565 574.554L686.096 605.459C686.099 606.885 686.668 608.252 687.678 609.259C688.688 610.267 690.056 610.832 691.483 610.832V610.832Z" fill="#E1B39C"/>
<path id="Path 6963" d="M651.301 438.183V452.498H638.039V438.183C582.688 441.04 553.989 479.763 553.989 524.035C553.989 570.05 594.589 607.35 644.669 607.35C694.748 607.35 735.348 570.051 735.348 524.035C735.349 479.763 706.702 441.038 651.301 438.183Z" fill="#EAC5B1"/>
<g id="Group 2203">
<path id="Path 6964" d="M567.318 429.453C567.15 429.437 566.981 429.468 566.83 429.541C566.678 429.615 566.55 429.729 566.46 429.871C566.278 430.16 548.459 459.088 570.404 488.655C570.537 488.833 570.731 488.956 570.948 489.001C571.166 489.046 571.393 489.009 571.586 488.898L612.867 464.97C613.061 464.858 613.206 464.678 613.275 464.465C613.343 464.252 613.331 464.021 613.239 463.817C613.098 463.497 598.85 432.646 567.318 429.453Z" fill="#EAC5B1"/>
<path id="Path 6965" d="M718.693 429.87C718.601 429.729 718.473 429.616 718.322 429.543C718.171 429.469 718.002 429.438 717.835 429.452C686.296 432.646 672.049 463.496 671.914 463.806C671.823 464.01 671.811 464.241 671.88 464.453C671.948 464.666 672.093 464.846 672.286 464.959L713.567 488.887C713.76 488.998 713.986 489.035 714.204 488.99C714.422 488.945 714.616 488.821 714.749 488.643C736.699 459.087 718.874 430.16 718.693 429.87Z" fill="#EAC5B1"/>
</g>
<path id="Ellipse 368" d="M644.671 562.069C664.301 562.069 680.214 550.188 680.214 535.533C680.214 520.878 664.301 508.998 644.671 508.998C625.041 508.998 609.128 520.878 609.128 535.533C609.128 550.188 625.041 562.069 644.671 562.069Z" fill="#E1B39C"/>
<g id="Group 2204">
<path id="Path 6966" d="M630.944 455.306V446.582C591.087 450.896 560.23 480.701 560.23 516.83C560.335 532.779 566.29 548.134 576.966 559.983C570.005 549.531 566.276 537.261 566.243 524.704C566.24 490.409 594.038 461.808 630.944 455.306Z" fill="#F2D6C9"/>
</g>
<path id="Path 6967" d="M575.969 578.409C584.841 587.663 595.513 595.004 607.328 599.979C619.143 604.955 631.851 607.46 644.67 607.341C694.75 607.341 735.35 570.043 735.35 524.026C735.387 514.502 733.989 505.026 731.204 495.918C699.248 631.21 575.969 578.409 575.969 578.409Z" fill="#DDB29C"/>
<path id="Path 6968" d="M679.8 531.463C663.628 557.985 635.041 556.411 620.517 554.994C627.675 559.729 636.094 562.195 644.675 562.07C664.303 562.07 680.218 550.187 680.218 535.535C680.216 534.167 680.076 532.802 679.8 531.463V531.463Z" fill="#DDB29C"/>
<path id="Path 6969" d="M569.674 433.794C569.674 433.794 561.746 442.065 562.267 463.104C562.267 463.104 564.873 440.906 575.96 434.928L569.674 433.794Z" fill="#F2D6C9"/>
<path id="Path 6970" d="M611.705 534.109C611.705 534.109 614.608 517.593 633.562 513.616C633.562 513.616 621.11 519.166 611.705 534.109Z" fill="#EAC5B1"/>
<path id="Path 6971" d="M688.119 609.65C689.073 610.416 690.259 610.833 691.482 610.832H705.196C706.622 610.832 707.99 610.266 708.999 609.258C710.008 608.251 710.575 606.883 710.577 605.457L714.757 591.278C704.5 603.161 694.433 607.825 688.119 609.65Z" fill="#DDB29C"/>
</g>
<g id="Group 2208">
<g id="Group 2206">
<path id="Path 6972" d="M634.321 534.109C634.321 537.12 632.869 539.558 631.08 539.558C629.291 539.558 627.84 537.12 627.84 534.109C627.84 531.098 629.291 528.66 631.08 528.66C632.869 528.66 634.321 531.098 634.321 534.109Z" fill="#CD9A7F"/>
</g>
<g id="Group 2207">
<path id="Path 6973" d="M661.504 534.109C661.504 537.12 660.053 539.558 658.264 539.558C656.475 539.558 655.023 537.12 655.023 534.109C655.023 531.098 656.475 528.66 658.264 528.66C660.053 528.66 661.504 531.098 661.504 534.109Z" fill="#CD9A7F"/>
</g>
</g>
</g>
<g id="Group 2215">
<g id="Group 2214">
<g id="Group 2210">
<path id="Ellipse 369" d="M801.496 391.621C830.145 362.972 830.145 316.523 801.496 287.874C772.847 259.225 726.398 259.225 697.749 287.874C669.1 316.523 669.1 362.972 697.749 391.621C726.398 420.27 772.847 420.27 801.496 391.621Z" fill="#FFD55A"/>
</g>
<g id="Group 2211">
<path id="Ellipse 370" d="M793.647 383.772C817.961 359.458 817.961 320.037 793.647 295.723C769.333 271.409 729.913 271.409 705.599 295.723C681.285 320.037 681.285 359.458 705.599 383.772C729.913 408.086 769.333 408.086 793.647 383.772Z" fill="#EBB043"/>
</g>
<g id="Group 2212">
<path id="Path 6974" d="M784.768 288.268C791.767 300.5 794.409 314.745 792.263 328.674C790.117 342.602 783.31 355.391 772.954 364.95C762.598 374.508 749.306 380.272 735.25 381.297C721.195 382.323 707.207 378.55 695.573 370.596C700.222 378.721 706.644 385.694 714.36 390.995C722.076 396.297 730.888 399.79 740.14 401.215C749.393 402.641 758.848 401.962 767.801 399.229C776.755 396.495 784.978 391.779 791.857 385.429C798.736 379.08 804.095 371.261 807.535 362.554C810.975 353.847 812.408 344.477 811.727 335.14C811.046 325.803 808.268 316.74 803.6 308.625C798.933 300.51 792.496 293.552 784.768 288.268V288.268Z" fill="#EDBC2D"/>
</g>
<g id="Group 2213">
<path id="Path 6975" d="M698.052 342.911C698.615 331.446 702.754 320.444 709.888 311.45C717.022 302.456 726.793 295.922 737.829 292.764C748.866 289.607 760.614 289.984 771.426 293.843C782.237 297.703 791.569 304.85 798.111 314.283C794.686 307.577 789.92 301.646 784.108 296.858C778.296 292.07 771.563 288.528 764.325 286.45C757.087 284.372 749.5 283.803 742.033 284.779C734.567 285.755 727.381 288.254 720.92 292.122C714.459 295.99 708.862 301.145 704.476 307.265C700.09 313.386 697.008 320.342 695.421 327.703C693.835 335.064 693.778 342.673 695.253 350.057C696.729 357.441 699.706 364.443 704 370.629C699.614 362.073 697.563 352.513 698.052 342.911V342.911Z" fill="#F7DB5E"/>
</g>
<path id="Path 6976" d="M756.727 299.861L756.335 307.782C759.142 308.289 761.772 309.507 763.974 311.321C766.259 313.478 768.1 316.06 769.396 318.923L761.301 322.94C759.14 318.511 756.147 316.202 752.32 316.013C750.164 315.833 748.019 316.481 746.323 317.825C745.538 318.437 744.899 319.215 744.45 320.104C744.002 320.992 743.755 321.969 743.728 322.963C743.659 323.845 743.771 324.731 744.058 325.567C744.344 326.404 744.8 327.172 745.396 327.825C747.559 329.795 750.023 331.407 752.695 332.599C755.411 333.965 758.042 335.494 760.574 337.177C762.3 338.288 763.858 339.641 765.2 341.195C768.063 344.568 769.493 348.928 769.184 353.342C769.033 357.741 767.366 361.954 764.465 365.265C761.542 368.628 757.577 370.914 753.203 371.76L752.79 380.121L745.714 379.776L746.112 371.654C740.873 370.533 736.933 368.515 734.292 365.6C731.652 362.684 729.815 358.3 728.783 352.446L737.771 351.022C738.37 354.297 739.748 357.379 741.788 360.01C743.729 361.851 746.304 362.876 748.979 362.872C750.345 362.979 751.719 362.813 753.019 362.382C754.32 361.952 755.522 361.267 756.555 360.367C757.581 359.472 758.407 358.371 758.978 357.135C759.55 355.9 759.854 354.557 759.871 353.196C759.98 352.015 759.846 350.825 759.477 349.698C759.107 348.571 758.51 347.533 757.723 346.646C756.63 345.586 755.433 344.638 754.151 343.817C752.185 342.534 750.149 341.364 748.051 340.311C742.94 337.712 739.611 335.387 738.065 333.336C736.309 331.083 735.18 328.407 734.792 325.578C734.405 322.748 734.772 319.867 735.856 317.225C736.555 315.591 737.541 314.095 738.767 312.808C740.076 311.458 741.603 310.338 743.284 309.493C745.174 308.541 747.185 307.848 749.26 307.433L749.652 299.513L756.727 299.861Z" fill="#D49A32"/>
</g>
</g>
<g id="Group 2216">
<path id="Path 6977" d="M742.332 384.56C743.668 384.938 744.998 385.31 746.336 385.687C746.748 385.803 747.95 385.891 747.863 386.552C747.822 386.877 747.775 387.994 747.661 389.098C747.877 390.016 748.059 390.941 748.355 391.837C749.105 394.105 753.095 398.102 751.05 400.331C750.684 400.784 750.235 401.162 749.726 401.445C749.291 401.626 748.826 401.724 748.355 401.733C747.991 401.761 747.417 401.895 747.133 401.638C746.827 401.114 746.6 400.548 746.459 399.958C746.006 398.83 745.554 397.705 745.102 396.582C744.657 395.475 744.043 394.212 742.969 393.987C742.73 393.961 742.493 393.919 742.26 393.859C742.001 393.74 741.769 393.57 741.578 393.359C740.808 392.617 740.123 391.792 739.533 390.901C738.999 390.078 739.303 389.409 739.445 388.524C739.606 387.491 739.156 386.559 739.3 385.533C739.32 385.255 739.413 384.987 739.569 384.755C739.725 384.524 739.94 384.339 740.191 384.217C740.623 384.114 741.076 384.147 741.489 384.312C741.772 384.404 742.055 384.478 742.332 384.56Z" fill="#E5D1BE"/>
<path id="Path 6978" d="M759.479 424.829C757.197 423.378 755.242 421.467 753.739 419.218C749.397 413.06 745.946 406.321 743.489 399.198C746.004 397.183 748.928 395.741 752.057 394.972C755.215 400.24 758.758 405.269 762.657 410.016C764.554 412.332 766.581 414.06 769.484 413.918C775.932 413.616 782.345 412.78 788.655 411.42C790.032 411.027 791.469 410.888 792.896 411.008C794.266 411.318 795.533 411.975 796.576 412.914C797.62 413.854 798.406 415.046 798.858 416.375C799.807 419.091 799.819 422.046 798.891 424.769C798.385 426.659 797.251 428.321 795.676 429.482C793.954 430.396 792.01 430.808 790.065 430.67C781.257 430.736 772.492 429.447 764.076 426.849C762.463 426.376 760.918 425.698 759.479 424.829V424.829Z" fill="#B5D6CB"/>
</g>
<g id="Group 2219">
<g id="Group 2217">
<path id="Path 6979" d="M833.689 583.608L830.678 587.004C826.336 584.028 822.253 580.692 818.471 577.031C820.571 576.105 821.907 573.384 824.83 575.532C825.776 576.228 833.493 583.831 833.689 583.608Z" fill="#E5D1BE"/>
<path id="Path 6980" d="M828.691 586.936C828.622 587.335 828.637 587.744 828.735 588.137C828.832 588.53 829.011 588.898 829.259 589.218C830.643 591.092 830.63 593.215 830.947 595.511C831.055 596.268 831.091 597.186 830.481 597.638C830.177 597.861 829.761 597.914 829.482 598.178C829.386 598.3 829.316 598.44 829.275 598.59C829.235 598.74 829.225 598.897 829.246 599.051C829.267 599.205 829.32 599.353 829.4 599.486C829.48 599.619 829.586 599.734 829.712 599.826C830.24 600.173 830.871 600.33 831.501 600.271C832.202 600.263 832.901 600.184 833.586 600.035C834.111 599.966 834.616 599.793 835.072 599.525C835.528 599.257 835.925 598.9 836.24 598.475C836.645 597.43 836.978 596.358 837.239 595.268C837.811 593.944 838.182 592.543 838.339 591.109C838.521 588.271 838.419 585.422 838.035 582.605C838.031 582.305 837.937 582.013 837.765 581.767C837.507 581.504 837.186 581.311 836.832 581.207C834.895 580.444 831.957 579.235 831.181 581.456C830.849 582.402 831.241 583.536 830.816 584.528C830.461 585.349 828.834 586.267 828.691 586.936Z" fill="#222323"/>
</g>
<path id="Path 6981" d="M762.143 538.66C761.555 539.77 761.25 541.007 761.252 542.263C761.561 543.82 762.355 545.238 763.521 546.315C778.415 562.96 797.085 575.693 815.557 588.252C815.7 588.381 815.868 588.478 816.05 588.54C816.233 588.601 816.426 588.625 816.617 588.61C816.881 588.519 817.111 588.352 817.279 588.13C821.728 583.289 826.176 578.447 830.621 573.606C831.294 573.16 831.849 572.559 832.239 571.852C832.629 571.146 832.843 570.356 832.862 569.549C832.881 568.742 832.705 567.943 832.349 567.219C831.993 566.495 831.468 565.867 830.817 565.39C822.194 555.06 813.574 544.727 804.956 534.392C804.392 533.842 804.02 533.125 803.897 532.346C803.917 531.767 804.079 531.201 804.37 530.699C807.712 523.569 811.052 516.441 814.389 509.315C817.435 502.813 822.586 485.838 818.723 479.789C814.625 473.374 797.151 465.285 790.372 468.756C777.341 475.434 770.326 519.727 762.143 538.66Z" fill="#0D2C3F"/>
<g id="Group 2218">
<path id="Path 6982" d="M796.578 601.635C795.059 601.31 793.551 600.993 792.027 600.669C792.118 595.057 792.658 589.462 793.642 583.937C795.593 585.388 798.638 585.159 798.456 589.035C798.394 590.292 796.281 601.568 796.578 601.635Z" fill="#E5D1BE"/>
<path id="Path 6983" d="M790.973 598.785C790.591 598.94 790.248 599.179 789.97 599.484C789.692 599.789 789.485 600.153 789.366 600.548C789.239 601.063 789.067 601.567 788.853 602.053C788.595 602.43 788.244 602.735 787.834 602.938C786.112 603.772 784.491 604.799 782.999 605.997C782.42 606.523 781.761 606.956 781.048 607.279C780.822 607.356 780.621 607.488 780.461 607.664C780.387 607.785 780.339 607.92 780.319 608.061C780.299 608.202 780.308 608.345 780.346 608.482C780.497 609.05 780.803 609.566 781.23 609.971C781.657 610.376 782.187 610.655 782.763 610.778C784.121 611.122 785.565 610.899 786.936 611.155C788.532 611.401 790.164 611.185 791.642 610.534C794.625 609.148 797.386 607.325 799.832 605.126C800.088 604.953 800.284 604.706 800.393 604.417C800.471 604.029 800.455 603.629 800.345 603.249C799.913 601.035 799.292 597.658 796.983 598.131C795.997 598.334 795.253 599.305 794.18 599.447C793.303 599.575 791.622 598.556 790.973 598.785Z" fill="#222323"/>
</g>
<path id="Path 6984" d="M778.185 584.175C786.825 585.679 795.326 587.897 803.6 590.805C807.203 584.911 809.116 578.01 810.751 571.15C814.957 553.54 817.678 535.513 820.4 517.518C821.811 508.197 823.219 498.87 824.626 489.537C825.788 481.853 829.157 473.345 821.567 467.992C819.272 466.517 816.771 465.389 814.147 464.643C811.042 463.477 807.777 462.794 804.465 462.618C802.807 462.541 801.15 462.799 799.594 463.377C798.039 463.955 796.615 464.84 795.41 465.981C792.034 469.492 791.939 474.901 791.717 479.768C791.176 491.943 788.138 503.522 786.308 515.5C784.412 527.917 783.714 540.469 782.561 552.968C781.736 563.449 780.275 573.871 778.185 584.175V584.175Z" fill="#18476C"/>
<path id="Path 6985" d="M808.252 400.784C820.629 408.474 828.016 430.216 830.028 442.605C832.623 458.605 831.014 475.022 828.536 491.058C808.388 485.596 788.096 480.748 767.66 476.514C769.854 476.966 776.472 464.644 777.45 462.78C779.996 457.945 782.939 451.825 783.236 446.218C783.865 434.542 780.117 422.434 783.068 410.838C785.153 402.647 792.02 397.441 800.11 398.029C803.008 398.268 805.804 399.214 808.252 400.784V400.784Z" fill="#B5D6CB"/>
</g>
<g id="Group 2222">
<g id="Group 2221">
<g id="Group 2220">
<path id="Path 6986" d="M792.025 403.254C794.563 402.741 797.1 402.225 799.634 401.707C799.533 400.58 799.385 399.452 799.181 398.332C799.026 397.474 798.461 396.198 798.736 395.394C799.067 394.443 799.911 393.545 800.309 392.572C800.714 391.565 801.017 390.52 801.214 389.452C801.523 387.708 801.628 385.934 801.525 384.165C801.299 382.844 800.923 381.553 800.404 380.317C800.191 379.31 799.783 378.356 799.202 377.507C798.577 376.858 797.825 376.344 796.994 375.997C796.162 375.65 795.268 375.477 794.367 375.489C789.263 375.132 780.16 377.474 780.701 384.037C780.856 385.475 781.129 386.898 781.518 388.291C782.255 391.248 782.585 396.919 786.211 397.925C787.265 398.002 788.31 398.178 789.331 398.451C791.013 399.312 791.04 401.667 792.025 403.254Z" fill="#E5D1BE"/>
</g>
</g>
<path id="Path 6987" d="M800.917 391.75C801.377 390.885 801.808 389.981 801.89 389.839C802.936 388.548 803.447 386.905 803.316 385.249C803.186 383.592 802.424 382.05 801.188 380.939C799.509 379.132 797.458 377.711 795.177 376.771C792.896 375.832 790.439 375.398 787.975 375.498C785.031 375.642 781.142 377.516 781.056 380.933C783.81 381.197 785.033 384.701 787.558 385.834C788.768 386.266 790.062 386.414 791.339 386.267C791.623 386.28 791.905 386.217 792.156 386.085C792.501 385.862 792.616 385.423 792.798 385.052C792.962 384.69 793.23 384.384 793.567 384.174C793.905 383.964 794.297 383.858 794.694 383.87C794.889 383.891 795.076 383.954 795.244 384.054C795.411 384.154 795.556 384.289 795.666 384.45C795.777 384.611 795.852 384.794 795.886 384.986C795.92 385.178 795.911 385.376 795.862 385.565C795.574 386.314 794.627 386.51 793.837 386.686C793.593 386.739 793.311 386.862 793.296 387.104C793.306 387.186 793.332 387.265 793.372 387.337C793.413 387.409 793.467 387.472 793.533 387.522C795.599 389.528 797.665 391.531 799.731 393.532C799.878 393.654 800.411 392.716 800.917 391.75Z" fill="#A09187"/>
<path id="Path 6988" d="M787.415 378.766C788.622 379.142 789.807 379.584 790.967 380.089C791.452 380.278 793.181 381.088 793.668 380.809C794.155 380.531 793.701 379.149 794.194 378.561C795.592 376.893 797.158 378.601 797.942 379.891C798.86 381.39 799.413 383.194 800.872 384.321C801.199 384.54 801.508 384.783 801.798 385.05C802.154 385.596 802.362 386.225 802.404 386.876C802.445 387.526 802.318 388.176 802.034 388.763C802.129 388.453 802.939 387.966 803.187 387.724C803.592 387.332 803.977 386.927 804.349 386.502C805.119 385.623 805.816 384.684 806.435 383.692C807.617 381.788 808.203 379.58 809.717 377.892C810.293 377.251 811.007 376.758 811.591 376.123C812.566 375.057 813.102 373.66 813.09 372.214C812.707 372.846 812.118 373.327 811.421 373.575C810.725 373.822 809.964 373.821 809.268 373.572C807.848 373.049 806.549 372.24 805.453 371.195C804.355 370.148 802.999 369.412 801.524 369.062C800.17 369.029 798.817 369.117 797.479 369.326C796.044 369.258 794.615 369.087 793.205 368.812C791.179 368.572 789.125 368.814 787.21 369.518C785.295 370.222 783.573 371.369 782.185 372.864C780.483 374.807 779.44 377.239 779.207 379.812C779.072 381.071 779.187 382.345 779.545 383.56C779.957 384.857 781.185 384.569 781.544 383.378C781.868 382.304 781.997 381.164 782.429 380.118C783.037 378.631 783.908 378.565 785.501 378.532C786.147 378.521 786.791 378.599 787.415 378.766V378.766Z" fill="#18476C"/>
</g>
</g>
</g>
<g id="Are you sure to transfer 50,000.00?">
<path d="M497.106 683.034H488.845L487.116 688H483.264L491.32 666.672H494.646L502.717 688H498.85L497.106 683.034ZM489.885 680.046H496.066L492.976 671.198L489.885 680.046ZM513.103 675.402C512.634 675.324 512.15 675.285 511.652 675.285C510.021 675.285 508.923 675.91 508.356 677.16V688H504.797V672.15H508.195L508.283 673.923C509.143 672.546 510.334 671.857 511.857 671.857C512.365 671.857 512.785 671.926 513.117 672.062L513.103 675.402ZM522.038 688.293C519.782 688.293 517.951 687.585 516.545 686.169C515.148 684.743 514.45 682.849 514.45 680.485V680.046C514.45 678.464 514.753 677.053 515.358 675.812C515.974 674.562 516.833 673.591 517.937 672.897C519.04 672.204 520.271 671.857 521.628 671.857C523.786 671.857 525.451 672.546 526.623 673.923C527.805 675.3 528.396 677.248 528.396 679.768V681.203H518.039C518.146 682.512 518.581 683.547 519.343 684.309C520.114 685.07 521.081 685.451 522.243 685.451C523.874 685.451 525.202 684.792 526.228 683.474L528.146 685.305C527.512 686.252 526.662 686.989 525.598 687.517C524.543 688.034 523.356 688.293 522.038 688.293ZM521.613 674.714C520.637 674.714 519.846 675.056 519.24 675.739C518.645 676.423 518.264 677.375 518.098 678.596H524.88V678.332C524.802 677.141 524.484 676.242 523.928 675.637C523.371 675.021 522.6 674.714 521.613 674.714ZM544.187 682.902L547.409 672.15H551.203L544.904 690.402C543.938 693.068 542.297 694.401 539.982 694.401C539.465 694.401 538.894 694.313 538.269 694.138V691.384L538.942 691.428C539.841 691.428 540.515 691.262 540.964 690.93C541.423 690.607 541.784 690.061 542.048 689.289L542.561 687.927L536.994 672.15H540.832L544.187 682.902ZM552.36 679.929C552.36 678.376 552.668 676.979 553.283 675.739C553.898 674.489 554.763 673.532 555.876 672.868C556.989 672.194 558.269 671.857 559.714 671.857C561.853 671.857 563.586 672.546 564.914 673.923C566.252 675.3 566.975 677.126 567.082 679.401L567.097 680.236C567.097 681.799 566.794 683.195 566.188 684.426C565.593 685.656 564.733 686.608 563.61 687.282C562.497 687.956 561.208 688.293 559.743 688.293C557.507 688.293 555.715 687.551 554.367 686.066C553.029 684.572 552.36 682.585 552.36 680.104V679.929ZM555.92 680.236C555.92 681.867 556.257 683.146 556.931 684.074C557.604 684.992 558.542 685.451 559.743 685.451C560.944 685.451 561.877 684.982 562.541 684.045C563.215 683.107 563.552 681.735 563.552 679.929C563.552 678.327 563.205 677.058 562.512 676.12C561.828 675.183 560.896 674.714 559.714 674.714C558.552 674.714 557.629 675.178 556.945 676.105C556.262 677.023 555.92 678.4 555.92 680.236ZM579.709 686.447C578.664 687.678 577.18 688.293 575.256 688.293C573.537 688.293 572.233 687.79 571.345 686.784C570.466 685.778 570.026 684.323 570.026 682.419V672.15H573.586V682.375C573.586 684.387 574.421 685.393 576.091 685.393C577.819 685.393 578.986 684.772 579.592 683.532V672.15H583.151V688H579.797L579.709 686.447ZM603.132 683.693C603.132 683.059 602.868 682.575 602.341 682.243C601.823 681.911 600.959 681.618 599.748 681.364C598.537 681.11 597.526 680.788 596.716 680.397C594.938 679.538 594.05 678.293 594.05 676.662C594.05 675.295 594.626 674.152 595.778 673.234C596.931 672.316 598.396 671.857 600.173 671.857C602.067 671.857 603.596 672.326 604.758 673.264C605.93 674.201 606.516 675.417 606.516 676.911H602.956C602.956 676.228 602.702 675.661 602.194 675.212C601.687 674.753 601.013 674.523 600.173 674.523C599.392 674.523 598.752 674.704 598.254 675.065C597.766 675.427 597.521 675.91 597.521 676.516C597.521 677.062 597.751 677.487 598.21 677.79C598.669 678.093 599.597 678.4 600.993 678.713C602.39 679.016 603.483 679.382 604.274 679.812C605.075 680.231 605.666 680.739 606.047 681.335C606.438 681.931 606.633 682.653 606.633 683.503C606.633 684.929 606.042 686.086 604.86 686.975C603.679 687.854 602.131 688.293 600.217 688.293C598.918 688.293 597.761 688.059 596.745 687.59C595.729 687.121 594.938 686.477 594.372 685.656C593.806 684.836 593.522 683.952 593.522 683.005H596.979C597.028 683.845 597.346 684.494 597.932 684.953C598.518 685.402 599.294 685.627 600.261 685.627C601.198 685.627 601.911 685.451 602.399 685.1C602.888 684.738 603.132 684.27 603.132 683.693ZM619.348 686.447C618.303 687.678 616.818 688.293 614.895 688.293C613.176 688.293 611.872 687.79 610.983 686.784C610.104 685.778 609.665 684.323 609.665 682.419V672.15H613.225V682.375C613.225 684.387 614.06 685.393 615.729 685.393C617.458 685.393 618.625 684.772 619.23 683.532V672.15H622.79V688H619.436L619.348 686.447ZM634.714 675.402C634.245 675.324 633.762 675.285 633.264 675.285C631.633 675.285 630.534 675.91 629.968 677.16V688H626.408V672.15H629.807L629.895 673.923C630.754 672.546 631.945 671.857 633.469 671.857C633.977 671.857 634.396 671.926 634.729 672.062L634.714 675.402ZM643.649 688.293C641.394 688.293 639.562 687.585 638.156 686.169C636.76 684.743 636.062 682.849 636.062 680.485V680.046C636.062 678.464 636.364 677.053 636.97 675.812C637.585 674.562 638.444 673.591 639.548 672.897C640.651 672.204 641.882 671.857 643.239 671.857C645.397 671.857 647.062 672.546 648.234 673.923C649.416 675.3 650.007 677.248 650.007 679.768V681.203H639.65C639.758 682.512 640.192 683.547 640.954 684.309C641.726 685.07 642.692 685.451 643.854 685.451C645.485 685.451 646.813 684.792 647.839 683.474L649.758 685.305C649.123 686.252 648.273 686.989 647.209 687.517C646.154 688.034 644.968 688.293 643.649 688.293ZM643.225 674.714C642.248 674.714 641.457 675.056 640.852 675.739C640.256 676.423 639.875 677.375 639.709 678.596H646.491V678.332C646.413 677.141 646.096 676.242 645.539 675.637C644.982 675.021 644.211 674.714 643.225 674.714ZM664.714 668.298V672.15H667.512V674.787H664.714V683.635C664.714 684.24 664.831 684.68 665.065 684.953C665.31 685.217 665.739 685.349 666.354 685.349C666.765 685.349 667.18 685.3 667.6 685.202V687.956C666.789 688.181 666.008 688.293 665.256 688.293C662.521 688.293 661.154 686.784 661.154 683.767V674.787H658.547V672.15H661.154V668.298H664.714ZM669.138 679.929C669.138 678.376 669.445 676.979 670.061 675.739C670.676 674.489 671.54 673.532 672.653 672.868C673.767 672.194 675.046 671.857 676.491 671.857C678.63 671.857 680.363 672.546 681.691 673.923C683.029 675.3 683.752 677.126 683.859 679.401L683.874 680.236C683.874 681.799 683.571 683.195 682.966 684.426C682.37 685.656 681.511 686.608 680.388 687.282C679.274 687.956 677.985 688.293 676.521 688.293C674.284 688.293 672.492 687.551 671.145 686.066C669.807 684.572 669.138 682.585 669.138 680.104V679.929ZM672.697 680.236C672.697 681.867 673.034 683.146 673.708 684.074C674.382 684.992 675.319 685.451 676.521 685.451C677.722 685.451 678.654 684.982 679.318 684.045C679.992 683.107 680.329 681.735 680.329 679.929C680.329 678.327 679.982 677.058 679.289 676.12C678.605 675.183 677.673 674.714 676.491 674.714C675.329 674.714 674.406 675.178 673.723 676.105C673.039 677.023 672.697 678.4 672.697 680.236ZM698.815 668.298V672.15H701.613V674.787H698.815V683.635C698.815 684.24 698.933 684.68 699.167 684.953C699.411 685.217 699.841 685.349 700.456 685.349C700.866 685.349 701.281 685.3 701.701 685.202V687.956C700.891 688.181 700.109 688.293 699.357 688.293C696.623 688.293 695.256 686.784 695.256 683.767V674.787H692.648V672.15H695.256V668.298H698.815ZM712.644 675.402C712.175 675.324 711.691 675.285 711.193 675.285C709.562 675.285 708.464 675.91 707.897 677.16V688H704.338V672.15H707.736L707.824 673.923C708.684 672.546 709.875 671.857 711.398 671.857C711.906 671.857 712.326 671.926 712.658 672.062L712.644 675.402ZM723.923 688C723.767 687.697 723.63 687.204 723.513 686.521C722.38 687.702 720.993 688.293 719.353 688.293C717.761 688.293 716.462 687.839 715.456 686.931C714.45 686.022 713.947 684.899 713.947 683.562C713.947 681.872 714.572 680.578 715.822 679.68C717.082 678.771 718.879 678.317 721.213 678.317H723.396V677.277C723.396 676.457 723.166 675.803 722.707 675.314C722.248 674.816 721.55 674.567 720.612 674.567C719.802 674.567 719.138 674.772 718.62 675.183C718.103 675.583 717.844 676.096 717.844 676.721H714.284C714.284 675.852 714.572 675.041 715.148 674.289C715.725 673.527 716.506 672.932 717.492 672.502C718.488 672.072 719.597 671.857 720.817 671.857C722.673 671.857 724.152 672.326 725.256 673.264C726.359 674.191 726.926 675.5 726.955 677.189V684.338C726.955 685.764 727.155 686.901 727.556 687.751V688H723.923ZM720.012 685.437C720.715 685.437 721.374 685.266 721.989 684.924C722.614 684.582 723.083 684.123 723.396 683.547V680.559H721.477C720.158 680.559 719.167 680.788 718.503 681.247C717.839 681.706 717.507 682.355 717.507 683.195C717.507 683.879 717.731 684.426 718.181 684.836C718.64 685.236 719.25 685.437 720.012 685.437ZM733.986 672.15L734.089 673.981C735.261 672.565 736.799 671.857 738.703 671.857C742.004 671.857 743.684 673.747 743.742 677.526V688H740.183V677.731C740.183 676.726 739.963 675.983 739.523 675.505C739.094 675.017 738.386 674.772 737.399 674.772C735.964 674.772 734.895 675.422 734.191 676.721V688H730.632V672.15H733.986ZM756.267 683.693C756.267 683.059 756.003 682.575 755.476 682.243C754.958 681.911 754.094 681.618 752.883 681.364C751.672 681.11 750.661 680.788 749.851 680.397C748.073 679.538 747.185 678.293 747.185 676.662C747.185 675.295 747.761 674.152 748.913 673.234C750.065 672.316 751.53 671.857 753.308 671.857C755.202 671.857 756.73 672.326 757.893 673.264C759.064 674.201 759.65 675.417 759.65 676.911H756.091C756.091 676.228 755.837 675.661 755.329 675.212C754.821 674.753 754.147 674.523 753.308 674.523C752.526 674.523 751.887 674.704 751.389 675.065C750.9 675.427 750.656 675.91 750.656 676.516C750.656 677.062 750.886 677.487 751.345 677.79C751.804 678.093 752.731 678.4 754.128 678.713C755.524 679.016 756.618 679.382 757.409 679.812C758.21 680.231 758.801 680.739 759.182 681.335C759.572 681.931 759.768 682.653 759.768 683.503C759.768 684.929 759.177 686.086 757.995 686.975C756.813 687.854 755.266 688.293 753.352 688.293C752.053 688.293 750.896 688.059 749.88 687.59C748.864 687.121 748.073 686.477 747.507 685.656C746.94 684.836 746.657 683.952 746.657 683.005H750.114C750.163 683.845 750.48 684.494 751.066 684.953C751.652 685.402 752.429 685.627 753.396 685.627C754.333 685.627 755.046 685.451 755.534 685.1C756.022 684.738 756.267 684.27 756.267 683.693ZM764.133 688V674.787H761.716V672.15H764.133V670.7C764.133 668.942 764.621 667.585 765.598 666.628C766.574 665.671 767.941 665.192 769.699 665.192C770.324 665.192 770.988 665.28 771.691 665.456L771.604 668.239C771.213 668.161 770.759 668.122 770.241 668.122C768.542 668.122 767.692 668.996 767.692 670.744V672.15H770.915V674.787H767.692V688H764.133ZM780.144 688.293C777.888 688.293 776.057 687.585 774.65 686.169C773.254 684.743 772.556 682.849 772.556 680.485V680.046C772.556 678.464 772.858 677.053 773.464 675.812C774.079 674.562 774.938 673.591 776.042 672.897C777.146 672.204 778.376 671.857 779.733 671.857C781.892 671.857 783.557 672.546 784.729 673.923C785.91 675.3 786.501 677.248 786.501 679.768V681.203H776.145C776.252 682.512 776.687 683.547 777.448 684.309C778.22 685.07 779.187 685.451 780.349 685.451C781.979 685.451 783.308 684.792 784.333 683.474L786.252 685.305C785.617 686.252 784.768 686.989 783.703 687.517C782.648 688.034 781.462 688.293 780.144 688.293ZM779.719 674.714C778.742 674.714 777.951 675.056 777.346 675.739C776.75 676.423 776.369 677.375 776.203 678.596H782.985V678.332C782.907 677.141 782.59 676.242 782.033 675.637C781.477 675.021 780.705 674.714 779.719 674.714ZM797.575 675.402C797.106 675.324 796.623 675.285 796.125 675.285C794.494 675.285 793.396 675.91 792.829 677.16V688H789.27V672.15H792.668L792.756 673.923C793.615 672.546 794.807 671.857 796.33 671.857C796.838 671.857 797.258 671.926 797.59 672.062L797.575 675.402Z" fill="#201F1F"/>
<path d="M807.551 677.512L808.781 666.672H820.734V670.202H812.253L811.726 674.787C812.731 674.25 813.801 673.981 814.934 673.981C816.965 673.981 818.557 674.611 819.709 675.871C820.861 677.131 821.438 678.894 821.438 681.159C821.438 682.536 821.145 683.771 820.559 684.865C819.982 685.949 819.152 686.794 818.068 687.399C816.984 687.995 815.705 688.293 814.23 688.293C812.941 688.293 811.745 688.034 810.642 687.517C809.538 686.989 808.664 686.252 808.02 685.305C807.385 684.357 807.048 683.278 807.009 682.067H811.198C811.286 682.956 811.594 683.649 812.121 684.147C812.658 684.636 813.356 684.88 814.216 684.88C815.173 684.88 815.91 684.538 816.428 683.854C816.945 683.161 817.204 682.185 817.204 680.925C817.204 679.714 816.906 678.786 816.311 678.142C815.715 677.497 814.87 677.175 813.776 677.175C812.771 677.175 811.955 677.438 811.33 677.966L810.92 678.347L807.551 677.512ZM838.503 679.182C838.503 682.131 837.893 684.387 836.672 685.949C835.451 687.512 833.664 688.293 831.311 688.293C828.986 688.293 827.209 687.526 825.979 685.993C824.748 684.46 824.118 682.263 824.089 679.401V675.476C824.089 672.497 824.704 670.236 825.935 668.693C827.175 667.15 828.957 666.379 831.281 666.379C833.605 666.379 835.383 667.146 836.613 668.679C837.844 670.202 838.474 672.395 838.503 675.256V679.182ZM834.27 674.875C834.27 673.107 834.025 671.823 833.537 671.022C833.059 670.212 832.307 669.807 831.281 669.807C830.285 669.807 829.548 670.192 829.069 670.964C828.601 671.726 828.352 672.922 828.322 674.553V679.738C828.322 681.477 828.557 682.771 829.025 683.62C829.504 684.46 830.266 684.88 831.311 684.88C832.346 684.88 833.093 684.475 833.552 683.664C834.011 682.854 834.25 681.613 834.27 679.943V674.875ZM842.648 693.347L840.437 692.189L840.964 691.237C841.618 690.046 841.955 688.859 841.975 687.678V684.396H845.549L845.534 687.326C845.524 688.41 845.251 689.504 844.714 690.607C844.177 691.711 843.488 692.624 842.648 693.347ZM863.054 679.182C863.054 682.131 862.443 684.387 861.223 685.949C860.002 687.512 858.215 688.293 855.861 688.293C853.537 688.293 851.76 687.526 850.529 685.993C849.299 684.46 848.669 682.263 848.64 679.401V675.476C848.64 672.497 849.255 670.236 850.485 668.693C851.726 667.15 853.508 666.379 855.832 666.379C858.156 666.379 859.934 667.146 861.164 668.679C862.395 670.202 863.024 672.395 863.054 675.256V679.182ZM858.82 674.875C858.82 673.107 858.576 671.823 858.088 671.022C857.609 670.212 856.857 669.807 855.832 669.807C854.836 669.807 854.099 670.192 853.62 670.964C853.151 671.726 852.902 672.922 852.873 674.553V679.738C852.873 681.477 853.107 682.771 853.576 683.62C854.055 684.46 854.816 684.88 855.861 684.88C856.896 684.88 857.644 684.475 858.103 683.664C858.562 682.854 858.801 681.613 858.82 679.943V674.875ZM880.28 679.182C880.28 682.131 879.67 684.387 878.449 685.949C877.229 687.512 875.441 688.293 873.088 688.293C870.764 688.293 868.986 687.526 867.756 685.993C866.525 684.46 865.896 682.263 865.866 679.401V675.476C865.866 672.497 866.481 670.236 867.712 668.693C868.952 667.15 870.734 666.379 873.059 666.379C875.383 666.379 877.16 667.146 878.391 668.679C879.621 670.202 880.251 672.395 880.28 675.256V679.182ZM876.047 674.875C876.047 673.107 875.803 671.823 875.314 671.022C874.836 670.212 874.084 669.807 873.059 669.807C872.062 669.807 871.325 670.192 870.847 670.964C870.378 671.726 870.129 672.922 870.1 674.553V679.738C870.1 681.477 870.334 682.771 870.803 683.62C871.281 684.46 872.043 684.88 873.088 684.88C874.123 684.88 874.87 684.475 875.329 683.664C875.788 682.854 876.027 681.613 876.047 679.943V674.875ZM897.507 679.182C897.507 682.131 896.896 684.387 895.676 685.949C894.455 687.512 892.668 688.293 890.314 688.293C887.99 688.293 886.213 687.526 884.982 685.993C883.752 684.46 883.122 682.263 883.093 679.401V675.476C883.093 672.497 883.708 670.236 884.938 668.693C886.179 667.15 887.961 666.379 890.285 666.379C892.609 666.379 894.387 667.146 895.617 668.679C896.848 670.202 897.478 672.395 897.507 675.256V679.182ZM893.273 674.875C893.273 673.107 893.029 671.823 892.541 671.022C892.062 670.212 891.311 669.807 890.285 669.807C889.289 669.807 888.552 670.192 888.073 670.964C887.604 671.726 887.355 672.922 887.326 674.553V679.738C887.326 681.477 887.561 682.771 888.029 683.62C888.508 684.46 889.27 684.88 890.314 684.88C891.35 684.88 892.097 684.475 892.556 683.664C893.015 682.854 893.254 681.613 893.273 679.943V674.875ZM900.773 685.92C900.773 685.246 900.998 684.699 901.447 684.279C901.906 683.859 902.478 683.649 903.161 683.649C903.854 683.649 904.426 683.859 904.875 684.279C905.334 684.699 905.563 685.246 905.563 685.92C905.563 686.584 905.339 687.126 904.89 687.546C904.44 687.956 903.864 688.161 903.161 688.161C902.468 688.161 901.896 687.956 901.447 687.546C900.998 687.126 900.773 686.584 900.773 685.92ZM923.464 679.182C923.464 682.131 922.854 684.387 921.633 685.949C920.412 687.512 918.625 688.293 916.271 688.293C913.947 688.293 912.17 687.526 910.939 685.993C909.709 684.46 909.079 682.263 909.05 679.401V675.476C909.05 672.497 909.665 670.236 910.896 668.693C912.136 667.15 913.918 666.379 916.242 666.379C918.566 666.379 920.344 667.146 921.574 668.679C922.805 670.202 923.435 672.395 923.464 675.256V679.182ZM919.23 674.875C919.23 673.107 918.986 671.823 918.498 671.022C918.02 670.212 917.268 669.807 916.242 669.807C915.246 669.807 914.509 670.192 914.03 670.964C913.562 671.726 913.312 672.922 913.283 674.553V679.738C913.283 681.477 913.518 682.771 913.986 683.62C914.465 684.46 915.227 684.88 916.271 684.88C917.307 684.88 918.054 684.475 918.513 683.664C918.972 682.854 919.211 681.613 919.23 679.943V674.875ZM940.69 679.182C940.69 682.131 940.08 684.387 938.859 685.949C937.639 687.512 935.852 688.293 933.498 688.293C931.174 688.293 929.396 687.526 928.166 685.993C926.936 684.46 926.306 682.263 926.276 679.401V675.476C926.276 672.497 926.892 670.236 928.122 668.693C929.362 667.15 931.145 666.379 933.469 666.379C935.793 666.379 937.57 667.146 938.801 668.679C940.031 670.202 940.661 672.395 940.69 675.256V679.182ZM936.457 674.875C936.457 673.107 936.213 671.823 935.725 671.022C935.246 670.212 934.494 669.807 933.469 669.807C932.473 669.807 931.735 670.192 931.257 670.964C930.788 671.726 930.539 672.922 930.51 674.553V679.738C930.51 681.477 930.744 682.771 931.213 683.62C931.691 684.46 932.453 684.88 933.498 684.88C934.533 684.88 935.28 684.475 935.739 683.664C936.198 682.854 936.438 681.613 936.457 679.943V674.875ZM947.194 681.452C947.194 680.085 947.36 678.996 947.692 678.186C948.024 677.375 948.63 676.579 949.509 675.798C950.397 675.007 950.988 674.367 951.281 673.879C951.574 673.381 951.721 672.858 951.721 672.312C951.721 670.661 950.959 669.836 949.436 669.836C948.713 669.836 948.132 670.061 947.692 670.51C947.263 670.949 947.038 671.56 947.019 672.341H942.771C942.79 670.476 943.391 669.016 944.572 667.961C945.764 666.906 947.385 666.379 949.436 666.379C951.506 666.379 953.112 666.882 954.255 667.888C955.397 668.884 955.969 670.295 955.969 672.121C955.969 672.951 955.783 673.737 955.412 674.479C955.041 675.212 954.392 676.027 953.464 676.926L952.277 678.054C951.535 678.767 951.11 679.602 951.003 680.559L950.944 681.452H947.194ZM946.77 685.949C946.77 685.295 946.989 684.758 947.429 684.338C947.878 683.908 948.449 683.693 949.143 683.693C949.836 683.693 950.402 683.908 950.842 684.338C951.291 684.758 951.516 685.295 951.516 685.949C951.516 686.594 951.296 687.126 950.856 687.546C950.427 687.966 949.855 688.176 949.143 688.176C948.43 688.176 947.854 687.966 947.414 687.546C946.984 687.126 946.77 686.594 946.77 685.949Z" fill="#2B74BA"/>
</g>
</g>
</g>
<defs>
<filter id="filter0_d" x="316" y="162" width="808" height="709" filterUnits="userSpaceOnUse" color-interpolation-filters="sRGB">
<feFlood flood-opacity="0" result="BackgroundImageFix"/>
<feColorMatrix in="SourceAlpha" type="matrix" values="0 0 0 0 0 0 0 0 0 0 0 0 0 0 0 0 0 0 127 0"/>
<feOffset dy="4"/>
<feGaussianBlur stdDeviation="5"/>
<feColorMatrix type="matrix" values="0 0 0 0 0 0 0 0 0 0 0 0 0 0 0 0 0 0 0.2 0"/>
<feBlend mode="normal" in2="BackgroundImageFix" result="effect1_dropShadow"/>
<feBlend mode="normal" in="SourceGraphic" in2="effect1_dropShadow" result="shape"/>
</filter>
<filter id="filter1_d" x="525" y="706" width="397" height="93.55" filterUnits="userSpaceOnUse" color-interpolation-filters="sRGB">
<feFlood flood-opacity="0" result="BackgroundImageFix"/>
<feColorMatrix in="SourceAlpha" type="matrix" values="0 0 0 0 0 0 0 0 0 0 0 0 0 0 0 0 0 0 127 0"/>
<feOffset dx="3" dy="10"/>
<feGaussianBlur stdDeviation="10"/>
<feColorMatrix type="matrix" values="0 0 0 0 0.168627 0 0 0 0 0.454902 0 0 0 0 0.729412 0 0 0 0.502 0"/>
<feBlend mode="normal" in2="BackgroundImageFix" result="effect1_dropShadow"/>
<feBlend mode="normal" in="SourceGraphic" in2="effect1_dropShadow" result="shape"/>
</filter>
</defs>
</svg>
